HIERARCHY
ROOT Hips
{
	OFFSET -3.958830 18.904000 13.208200
	CHANNELS 6 Xposition Yposition Zposition Zrotation Yrotation Xrotation 
	JOINT LHipJoint
	{
		OFFSET 0.000000 0.000000 0.000000
		CHANNELS 3 Zrotation Yrotation Xrotation
		JOINT LeftUpLeg
		{
			OFFSET 1.800000 -1.400000 0.085000
			CHANNELS 3 Zrotation Yrotation Xrotation
			JOINT LeftLeg
			{
				OFFSET 2.215000 -6.000000 0.000000
				CHANNELS 3 Zrotation Yrotation Xrotation
				JOINT LeftFoot
				{
					OFFSET 2.500000 -6.900000 0.000000
					CHANNELS 3 Zrotation Yrotation Xrotation
					JOINT LeftToeBase
					{
						OFFSET 0.200000 -0.500000 1.950000
						CHANNELS 3 Zrotation Yrotation Xrotation
						End Site
						{
							OFFSET 0.000000 0.000000 0.000000
						}
					}
				}
			}
		}
	}
	JOINT RHipJoint
	{
		OFFSET 0.000000 0.000000 0.000000
		CHANNELS 3 Zrotation Yrotation Xrotation
		JOINT RightUpLeg
		{
			OFFSET -1.800000 -1.400000 0.085000
			CHANNELS 3 Zrotation Yrotation Xrotation
			JOINT RightLeg
			{
				OFFSET -2.215000 -6.000000 0.000000
				CHANNELS 3 Zrotation Yrotation Xrotation
				JOINT RightFoot
				{
					OFFSET -2.500000 -6.900000 0.000000
					CHANNELS 3 Zrotation Yrotation Xrotation
					JOINT RightToeBase
					{
						OFFSET -0.200000 -0.500000 1.950000
						CHANNELS 3 Zrotation Yrotation Xrotation
						End Site
						{
							OFFSET 0.000000 0.000000 0.000000
						}
					}
				}
			}
		}
	}
	JOINT LowerBack
	{
		OFFSET 0.000000 0.000000 0.000000
		CHANNELS 3 Zrotation Yrotation Xrotation
		JOINT Spine
		{
			OFFSET -0.087000 1.940000 -0.288900
			CHANNELS 3 Zrotation Yrotation Xrotation
			JOINT Spine1
			{
				OFFSET 0.000000 1.950000 0.060000
				CHANNELS 3 Zrotation Yrotation Xrotation
				JOINT Neck
				{
					OFFSET 0.000000 0.000000 0.000000
					CHANNELS 3 Zrotation Yrotation Xrotation
					JOINT Neck1
					{
						OFFSET 0.000000 1.600000 0.340000
						CHANNELS 3 Zrotation Yrotation Xrotation
						JOINT Head
						{
							OFFSET 0.000000 1.667000 -0.240000
							CHANNELS 3 Zrotation Yrotation Xrotation
							End Site
							{
								OFFSET 0.000000 0.000000 0.000000
							}
						}
					}
				}
				JOINT LeftShoulder
				{
					OFFSET 0.000000 0.000000 0.000000
					CHANNELS 3 Zrotation Yrotation Xrotation
					JOINT LeftArm
					{
						OFFSET 2.700000 1.550000 -0.730000
						CHANNELS 3 Zrotation Yrotation Xrotation
						JOINT LeftForeArm
						{
							OFFSET 5.450000 0.000000 0.000000
							CHANNELS 3 Zrotation Yrotation Xrotation
							JOINT LeftHand
							{
								OFFSET 3.450000 0.000000 0.000000
								CHANNELS 3 Zrotation Yrotation Xrotation
								JOINT LeftHandIndex1
								{
									OFFSET 0.750000 0.000000 0.000000
									CHANNELS 3 Zrotation Yrotation Xrotation
									End Site
									{
										OFFSET 0.000000 0.000000 0.000000
									}
								}
							}
						}
					}
				}
				JOINT RightShoulder
				{
					OFFSET 0.000000 0.000000 0.000000
					CHANNELS 3 Zrotation Yrotation Xrotation
					JOINT RightArm
					{
						OFFSET -2.700000 1.550000 -0.730000
						CHANNELS 3 Zrotation Yrotation Xrotation
						JOINT RightForeArm
						{
							OFFSET -5.450000 0.000000 0.000000
							CHANNELS 3 Zrotation Yrotation Xrotation
							JOINT RightHand
							{
								OFFSET -3.450000 0.000000 0.000000
								CHANNELS 3 Zrotation Yrotation Xrotation
								JOINT RightHandIndex1
								{
									OFFSET -0.750000 0.000000 0.000000
									CHANNELS 3 Zrotation Yrotation Xrotation
									End Site
									{
										OFFSET 0.000000 0.000000 0.000000
									}
								}
							}
						}
					}
				}
			}
		}
	}
}
MOTION
Frames: 6
Frame Time: 0.016667
-0.088620 17.040220 -1.707210 -9.367885 30.294778 -5.444864 -15.164609 12.790877 2.195377 13.752560 3.252706 -27.354696 1.216447 7.718392 25.348914 -0.737323 5.408396 2.889032 -0.097090 -0.747640 -0.134580 18.213382 -11.687242 2.990123 -11.718306 2.666927 -0.725877 13.678597 -7.017052 11.537437 -0.275531 -5.222284 2.861056 -0.187090 0.788830 -0.013810 -4.205660 1.066039 -7.619150 4.288467 8.890783 9.847259 -26.079264 14.788594 5.965918 12.921737 -13.143071 -15.417204 -24.739188 -0.641322 33.316321 4.156160 -14.730700 -3.736420 -11.902142 -9.623151 4.427475 -46.184518 -4.189374 -8.309988 -34.697563 -46.736194 8.357795 -3.701322 2.940197 0.620550 0.209250 -0.534540 0.164150 -12.918720 30.123594 5.884705 -35.336714 13.786411 -16.635226 -38.218021 -9.328326 -0.863555 3.255218 -1.208591 -0.664750 0.610410 0.405450 -0.200730 
-0.099490 17.026210 -1.712720 -9.442863 29.864773 -4.854255 -15.151416 12.758451 2.185038 13.470509 4.069531 -28.740408 1.588246 8.117597 26.166184 -0.704590 5.523429 2.809205 -0.070660 -0.715050 -0.134170 18.239857 -11.652923 3.002270 -11.973567 3.337319 -1.527300 14.334296 -7.006440 11.896149 -0.284573 -5.203695 2.847791 -0.180250 0.753800 -0.008360 -4.234135 1.127230 -7.652913 4.275943 9.160502 9.408044 -26.832852 15.064491 5.442500 12.898328 -13.316316 -15.490144 -25.355463 0.523932 34.228281 5.202440 -14.504520 -4.060270 -11.566032 -9.445244 4.740003 -47.136252 -3.609455 -9.024878 -34.117985 -48.384737 8.289574 -3.655742 2.992759 0.632100 0.179690 -0.511630 0.167770 -13.263972 30.364073 4.533753 -35.290229 16.256994 -15.245806 -29.274222 -3.003522 -1.751220 2.953216 -1.130165 -0.638240 0.583850 0.395330 -0.199530 
-0.102850 16.996240 -1.709240 -9.324964 29.600150 -3.719466 -15.153260 12.699206 2.193208 12.754098 4.600597 -30.503222 2.331709 8.360793 27.046126 -0.679182 5.627379 2.753993 -0.076070 -0.716390 -0.144060 18.257884 -11.603650 2.998122 -12.450888 4.049845 -2.764484 15.049910 -7.033517 12.308034 -0.265969 -5.192790 2.834929 -0.188860 0.752780 0.012270 -4.223447 1.187841 -7.614377 4.033434 9.667769 8.072974 -27.496394 15.345718 5.021589 12.889469 -13.021398 -15.387672 -24.822159 0.856678 34.839715 4.863720 -14.264250 -3.448150 -10.986551 -9.384132 5.126826 -47.982302 -2.913298 -9.485639 -33.760575 -49.690362 8.356412 -3.661024 3.020222 0.621730 0.191260 -0.507020 0.165590 -13.861214 30.270015 2.901715 -33.421101 19.728616 -13.401921 -23.612880 2.511532 -1.904496 2.677968 -1.173757 -0.620860 0.560290 0.398440 -0.194030 
-0.102370 16.973780 -1.710500 -9.292195 29.049433 -3.126682 -15.126182 12.644250 2.172669 12.303688 5.186924 -31.569183 2.855102 8.671115 27.897188 -0.652186 5.753188 2.680668 -0.055330 -0.708450 -0.138960 18.292368 -11.625955 3.005540 -12.898150 4.715457 -3.866591 15.570295 -7.121383 13.128596 -0.266801 -5.200754 2.798513 -0.192940 0.731720 0.036790 -4.305521 1.383765 -7.587340 4.105221 10.263025 7.240141 -27.720539 15.675595 4.682303 12.515046 -12.847017 -15.276651 -24.801233 1.737337 35.970871 5.682120 -14.270270 -3.483310 -10.715853 -9.971937 5.885050 -48.818272 -2.080704 -10.015290 -33.965389 -51.173301 8.633907 -3.636224 3.076400 0.634540 0.171700 -0.490690 0.168810 -13.487472 30.525970 1.550642 -30.775597 23.343987 -12.179008 -20.684952 8.009641 -1.924291 2.491440 -1.291694 -0.597380 0.525720 0.395720 -0.193320 
-0.113900 16.942690 -1.712060 -9.094242 28.180478 -2.426330 -15.115828 12.571055 2.169266 12.010240 5.715868 -32.631746 3.265951 9.040072 28.789178 -0.622474 5.919835 2.596360 -0.044250 -0.697090 -0.148370 18.316453 -11.663573 2.974925 -13.319490 5.274638 -5.282759 15.712173 -7.224919 14.339622 -0.239375 -5.208822 2.769871 -0.186020 0.728640 0.059940 -4.322547 1.628494 -7.502851 3.651312 11.056201 6.219555 -27.380956 16.107282 4.470892 12.106565 -12.540345 -14.855518 -24.104803 2.331533 36.501586 5.679900 -13.962660 -2.892320 -10.505500 -10.664270 6.685907 -49.542387 -1.459940 -10.298673 -34.139907 -52.675454 9.035959 -3.644057 3.132717 0.615810 0.182200 -0.495990 0.171790 -12.979131 30.610018 0.046778 -26.640861 26.944884 -11.385627 -20.717845 13.820908 -2.432105 2.385070 -1.459728 -0.577110 0.492010 0.397310 -0.188810 
-0.121700 16.916880 -1.718470 -9.106212 27.431851 -2.200258 -15.100484 12.526775 2.167790 12.043024 6.061745 -33.156279 3.673775 9.215813 29.380756 -0.590822 6.007280 2.544551 -0.002780 -0.653350 -0.104970 18.333760 -11.684678 2.989388 -13.689467 5.739222 -6.261791 16.146946 -7.360801 15.188531 -0.251675 -5.238097 2.737982 -0.174590 0.689820 0.086900 -4.360408 1.794009 -7.498142 3.671157 11.239782 5.803448 -27.138539 16.003690 4.269040 11.943717 -12.252117 -14.597300 -23.509956 2.913060 37.242541 4.824960 -13.041390 -2.910480 -10.958096 -11.879720 7.783167 -49.710201 -0.167779 -10.942128 -33.208599 -54.150955 8.867108 -3.615989 3.170519 0.614590 0.177600 -0.466510 0.171780 -12.284560 31.186385 -1.206007 -22.861270 29.978424 -10.908201 -21.199977 20.077686 -3.198038 2.317619 -1.584141 -0.542060 0.455110 0.367000 -0.196470 
